<mxGraphModel dx="0" dy="0" grid="1" gridSize="10" guides="1" tooltips="1" connect="1" arrows="1" fold="1" page="0" pageScale="1" background="none" math="0" shadow="0">
  <root>
    <mxCell id="0" />
    <mxCell id="1" parent="0" />
    <mxCell id="node0" parent="1" vertex="1" value="&lt;p style=&quot;margin:0px;margin-top:4px;text-align:center;&quot;&gt;&lt;b&gt;Category&lt;/b&gt;&lt;/p&gt;&lt;hr size=&quot;1&quot;/&gt;&lt;p style=&quot;margin:0 0 0 4px;line-height:1.6;&quot;&gt;+ parent: Category&lt;br/&gt;+ name: String&lt;br/&gt;+ fields: HashMap&amp;lt;String, Field&amp;gt;&lt;br/&gt;+ id: long&lt;br/&gt;+ description: String&lt;/p&gt;&lt;hr size=&quot;1&quot;/&gt;&lt;p style=&quot;margin:0 0 0 4px;line-height:1.6;&quot;&gt;+ getName(): String&lt;br/&gt;+ toString(): String&lt;br/&gt;+ setId(long): void&lt;br/&gt;+ setDescription(String): void&lt;br/&gt;+ getId(): long&lt;br/&gt;+ setName(String): void&lt;br/&gt;+ setParent(Category): void&lt;br/&gt;+ equals(Object): boolean&lt;br/&gt;+ getDescription(): String&lt;br/&gt;+ setFields(HashMap&amp;lt;String, Field&amp;gt;): void&lt;br/&gt;+ toString(String): String&lt;br/&gt;+ getParent(): Category&lt;br/&gt;+ getFields(): HashMap&amp;lt;String, Field&amp;gt;&lt;/p&gt;" style="verticalAlign=top;align=left;overflow=fill;fontSize=14;fontFamily=Helvetica;html=1;rounded=0;shadow=0;comic=0;labelBackgroundColor=none;strokeWidth=1;">
      <mxGeometry x="64" y="-143" width="272" height="429" as="geometry" />
    </mxCell>
    <mxCell id="node2" parent="1" vertex="1" value="&lt;p style=&quot;margin:0px;margin-top:4px;text-align:center;&quot;&gt;&lt;b&gt;Field&lt;/b&gt;&lt;/p&gt;&lt;hr size=&quot;1&quot;/&gt;&lt;p style=&quot;margin:0 0 0 4px;line-height:1.6;&quot;&gt;+ mandatory: boolean&lt;br/&gt;+ name: String&lt;/p&gt;&lt;hr size=&quot;1&quot;/&gt;&lt;p style=&quot;margin:0 0 0 4px;line-height:1.6;&quot;&gt;+ toString(String): String&lt;br/&gt;+ equals(Object): boolean&lt;br/&gt;+ getName(): String&lt;br/&gt;+ isMandatory(): boolean&lt;br/&gt;+ setName(String): void&lt;br/&gt;+ setMandatory(boolean): void&lt;/p&gt;" style="verticalAlign=top;align=left;overflow=fill;fontSize=14;fontFamily=Helvetica;html=1;rounded=0;shadow=0;comic=0;labelBackgroundColor=none;strokeWidth=1;">
      <mxGeometry x="94" y="-402" width="212" height="209" as="geometry" />
    </mxCell>
    <mxCell id="node1" parent="1" vertex="1" value="&lt;p style=&quot;margin:0px;margin-top:4px;text-align:center;&quot;&gt;&lt;b&gt;Hierarchies&lt;/b&gt;&lt;/p&gt;&lt;hr size=&quot;1&quot;/&gt;&lt;p style=&quot;margin:0 0 0 4px;line-height:1.6;&quot;&gt;+ hierarchies: List&amp;lt;Hierarchy&amp;gt;&lt;/p&gt;&lt;hr size=&quot;1&quot;/&gt;&lt;p style=&quot;margin:0 0 0 4px;line-height:1.6;&quot;&gt;+ getCategoryFromId(long): Category&lt;br/&gt;+ setHierarchies(List&amp;lt;Hierarchy&amp;gt;): void&lt;br/&gt;+ getHierarchies(): List&amp;lt;Hierarchy&amp;gt;&lt;/p&gt;" style="verticalAlign=top;align=left;overflow=fill;fontSize=14;fontFamily=Helvetica;html=1;rounded=0;shadow=0;comic=0;labelBackgroundColor=none;strokeWidth=1;">
      <mxGeometry x="-62" y="1189" width="255" height="131" as="geometry" />
    </mxCell>
    <mxCell id="node3" parent="1" vertex="1" value="&lt;p style=&quot;margin:0px;margin-top:4px;text-align:center;&quot;&gt;&lt;b&gt;Hierarchy&lt;/b&gt;&lt;/p&gt;&lt;hr size=&quot;1&quot;/&gt;&lt;p style=&quot;margin:0 0 0 4px;line-height:1.6;&quot;&gt;+ DAYS_OF_WEEK: String[]&lt;br/&gt;+ luoghi: List&amp;lt;String&amp;gt;&lt;br/&gt;+ id: long&lt;br/&gt;+ scadenza: int&lt;br/&gt;+ int_map: HashMap&amp;lt;String, Integer&amp;gt;&lt;br/&gt;+ intervalli: List&amp;lt;Interval&amp;gt;&lt;br/&gt;+ piazza: String&lt;br/&gt;+ categories: HashMap&amp;lt;Integer, Category&amp;gt;&lt;br/&gt;+ giorni: List&amp;lt;String&amp;gt;&lt;/p&gt;&lt;hr size=&quot;1&quot;/&gt;&lt;p style=&quot;margin:0 0 0 4px;line-height:1.6;&quot;&gt;+ getCategories(): HashMap&amp;lt;Integer, Category&amp;gt;&lt;br/&gt;+ setGiorni(List&amp;lt;String&amp;gt;): void&lt;br/&gt;+ setId(long): void&lt;br/&gt;+ getPiazza(): String&lt;br/&gt;+ getId(): long&lt;br/&gt;+ getChildrenSize(Category): int&lt;br/&gt;+ getScadenza(): int&lt;br/&gt;+ getRoot(): Category&lt;br/&gt;+ getGiorni(): List&amp;lt;String&amp;gt;&lt;br/&gt;+ getInt_map(): HashMap&amp;lt;String, Integer&amp;gt;&lt;br/&gt;+ toStringCategoryWithParent(StringBuilder, String, Category): int&lt;br/&gt;+ getLuoghi(): List&amp;lt;String&amp;gt;&lt;br/&gt;+ is_day_of_week(String): boolean&lt;br/&gt;+ toStringInfo(StringBuilder, String): void&lt;br/&gt;+ setScadenza(int): void&lt;br/&gt;+ setLuoghi(List&amp;lt;String&amp;gt;): void&lt;br/&gt;+ getChildren(Category): List&amp;lt;Category&amp;gt;&lt;br/&gt;+ setPiazza(String): void&lt;br/&gt;+ setNewId(): void&lt;br/&gt;+ getIntervalli(): List&amp;lt;Interval&amp;gt;&lt;br/&gt;+ setIntervalli(List&amp;lt;Interval&amp;gt;): void&lt;br/&gt;+ toStringCategories(StringBuilder, String): void&lt;br/&gt;+ newCategory(Category): void&lt;br/&gt;+ setCategories(HashMap&amp;lt;Integer, Category&amp;gt;): void&lt;br/&gt;+ toString(String): String&lt;br/&gt;+ setInt_map(HashMap&amp;lt;String, Integer&amp;gt;): void&lt;/p&gt;" style="verticalAlign=top;align=left;overflow=fill;fontSize=14;fontFamily=Helvetica;html=1;rounded=0;shadow=0;comic=0;labelBackgroundColor=none;strokeWidth=1;">
      <mxGeometry x="-117" y="336" width="365" height="803" as="geometry" />
    </mxCell>
    <mxCell id="node4" parent="1" vertex="1" value="&lt;p style=&quot;margin:0px;margin-top:4px;text-align:center;&quot;&gt;&lt;b&gt;Interval&lt;/b&gt;&lt;/p&gt;&lt;hr size=&quot;1&quot;/&gt;&lt;p style=&quot;margin:0 0 0 4px;line-height:1.6;&quot;&gt;+ startAt: LocalTime&lt;br/&gt;+ endAt: LocalTime&lt;br/&gt;+ PATTERN: String&lt;/p&gt;&lt;hr size=&quot;1&quot;/&gt;&lt;p style=&quot;margin:0 0 0 4px;line-height:1.6;&quot;&gt;+ format(LocalTime): String&lt;br/&gt;+ getEndAt(): LocalTime&lt;br/&gt;+ setStartAt(LocalTime): boolean&lt;br/&gt;+ toString(): String&lt;br/&gt;+ setStartAt(String): boolean&lt;br/&gt;+ getStartAt(): LocalTime&lt;br/&gt;+ is_possible(LocalTime): boolean&lt;br/&gt;+ fromString(String): LocalTime&lt;br/&gt;+ setEndAt(LocalTime): boolean&lt;br/&gt;+ setEndAt(String): boolean&lt;/p&gt;" style="verticalAlign=top;align=left;overflow=fill;fontSize=14;fontFamily=Helvetica;html=1;rounded=0;shadow=0;comic=0;labelBackgroundColor=none;strokeWidth=1;">
      <mxGeometry x="-183" y="-88" width="227" height="319" as="geometry" />
    </mxCell>
    <mxCell id="edge2" edge="1" value="" parent="1" source="node0" target="node2" style="html=1;rounded=1;edgeStyle=orthogonalEdgeStyle;dashed=0;startArrow=diamondThinstartSize=12;endArrow=openThin;endSize=12;strokeColor=#595959;exitX=0.500;exitY=0.000;exitDx=0;exitDy=0;entryX=0.500;entryY=1.000;entryDx=0;entryDy=0;">
      <mxGeometry width="50" height="50" relative="1" as="geometry">
        <Array as="points" />
      </mxGeometry>
    </mxCell>
    <mxCell id="label12" parent="edge2" vertex="1" connectable="0" value="1" style="edgeLabel;resizable=0;html=1;align=left;verticalAlign=top;strokeColor=default;">
      <mxGeometry x="189" y="-167" as="geometry" />
    </mxCell>
    <mxCell id="label16" parent="edge2" vertex="1" connectable="0" value="*" style="edgeLabel;resizable=0;html=1;align=left;verticalAlign=top;strokeColor=default;">
      <mxGeometry x="191" y="-188" as="geometry" />
    </mxCell>
    <mxCell id="label17" parent="edge2" vertex="1" connectable="0" value="fields" style="edgeLabel;resizable=0;html=1;align=left;verticalAlign=top;strokeColor=default;">
      <mxGeometry x="200" y="-188" as="geometry" />
    </mxCell>
    <mxCell id="edge3" edge="1" value="" parent="1" source="node1" target="node3" style="html=1;rounded=1;edgeStyle=orthogonalEdgeStyle;dashed=0;startArrow=diamondThinstartSize=12;endArrow=openThin;endSize=12;strokeColor=#595959;exitX=0.500;exitY=0.000;exitDx=0;exitDy=0;entryX=0.500;entryY=1.000;entryDx=0;entryDy=0;">
      <mxGeometry width="50" height="50" relative="1" as="geometry">
        <Array as="points" />
      </mxGeometry>
    </mxCell>
    <mxCell id="label18" parent="edge3" vertex="1" connectable="0" value="1" style="edgeLabel;resizable=0;html=1;align=left;verticalAlign=top;strokeColor=default;">
      <mxGeometry x="54" y="1165" as="geometry" />
    </mxCell>
    <mxCell id="label22" parent="edge3" vertex="1" connectable="0" value="*" style="edgeLabel;resizable=0;html=1;align=left;verticalAlign=top;strokeColor=default;">
      <mxGeometry x="56" y="1144" as="geometry" />
    </mxCell>
    <mxCell id="label23" parent="edge3" vertex="1" connectable="0" value="hierarchies" style="edgeLabel;resizable=0;html=1;align=left;verticalAlign=top;strokeColor=default;">
      <mxGeometry x="65" y="1144" as="geometry" />
    </mxCell>
    <mxCell id="edge1" edge="1" value="" parent="1" source="node3" target="node0" style="html=1;rounded=1;edgeStyle=orthogonalEdgeStyle;dashed=0;startArrow=diamondThinstartSize=12;endArrow=openThin;endSize=12;strokeColor=#595959;exitX=0.500;exitY=0.000;exitDx=0;exitDy=0;entryX=0.500;entryY=1.000;entryDx=0;entryDy=0;">
      <mxGeometry width="50" height="50" relative="1" as="geometry">
        <Array as="points">
          <mxPoint x="65" y="311" />
          <mxPoint x="200" y="311" />
        </Array>
      </mxGeometry>
    </mxCell>
    <mxCell id="label6" parent="edge1" vertex="1" connectable="0" value="1" style="edgeLabel;resizable=0;html=1;align=left;verticalAlign=top;strokeColor=default;">
      <mxGeometry x="168" y="292" as="geometry" />
    </mxCell>
    <mxCell id="label10" parent="edge1" vertex="1" connectable="0" value="*" style="edgeLabel;resizable=0;html=1;align=left;verticalAlign=top;strokeColor=default;">
      <mxGeometry x="191" y="291" as="geometry" />
    </mxCell>
    <mxCell id="label11" parent="edge1" vertex="1" connectable="0" value="categories" style="edgeLabel;resizable=0;html=1;align=left;verticalAlign=top;strokeColor=default;">
      <mxGeometry x="200" y="291" as="geometry" />
    </mxCell>
    <mxCell id="edge0" edge="1" value="" parent="1" source="node3" target="node4" style="html=1;rounded=1;edgeStyle=orthogonalEdgeStyle;dashed=0;startArrow=diamondThinstartSize=12;endArrow=openThin;endSize=12;strokeColor=#595959;exitX=0.500;exitY=0.000;exitDx=0;exitDy=0;entryX=0.500;entryY=1.000;entryDx=0;entryDy=0;">
      <mxGeometry width="50" height="50" relative="1" as="geometry">
        <Array as="points">
          <mxPoint x="65" y="311" />
          <mxPoint x="-69" y="311" />
        </Array>
      </mxGeometry>
    </mxCell>
    <mxCell id="label0" parent="edge0" vertex="1" connectable="0" value="1" style="edgeLabel;resizable=0;html=1;align=left;verticalAlign=top;strokeColor=default;">
      <mxGeometry x="-21" y="292" as="geometry" />
    </mxCell>
    <mxCell id="label4" parent="edge0" vertex="1" connectable="0" value="*" style="edgeLabel;resizable=0;html=1;align=left;verticalAlign=top;strokeColor=default;">
      <mxGeometry x="-78" y="242" as="geometry" />
    </mxCell>
    <mxCell id="label5" parent="edge0" vertex="1" connectable="0" value="intervalli" style="edgeLabel;resizable=0;html=1;align=left;verticalAlign=top;strokeColor=default;">
      <mxGeometry x="-69" y="242" as="geometry" />
    </mxCell>
  </root>
</mxGraphModel>